# xmcd CD database file
#
# Track frame offsets:
#	150
#	29745
#	54675
#	81305
#	113405
#	135693
#
# Disc length: 2182 seconds
#
# Revision: 0
# Processed by: cddbd v1.5.1PL2 Copyright (c) Steve Scherf et al.
# Submitted via: CDex 1.50
#
DISCID=4e088406
DTITLE=Tommy Flanagan - Giant Steps
DYEAR=1982
DGENRE=Jazz
TTITLE0=Mr PC
TTITLE1=Central Park West
TTITLE2=Syeeda's Song Flute
TTITLE3=Cousin Mary
TTITLE4=Naima
TTITLE5=Giant Steps
EXTD=YEAR: 1982
EXTT0=
EXTT1=
EXTT2=
EXTT3=
EXTT4=
EXTT5=
PLAYORDER=
